<?xml version="1.0" standalone="no"?>
<!DOCTYPE svg PUBLIC "-//W3C//DTD SVG 20010904//EN"
 "http://www.w3.org/TR/2001/REC-SVG-20010904/DTD/svg10.dtd">
<svg version="1.0" xmlns="http://www.w3.org/2000/svg"
 width="500.000000pt" height="500.000000pt" viewBox="0 0 500.000000 500.000000"
 preserveAspectRatio="xMidYMid meet">

<g transform="translate(0.000000,500.000000) scale(0.100000,-0.100000)"
fill="#000000" stroke="none">
<path d="M2665 4418 c-44 -24 -217 -200 -288 -292 l-28 -36 -51 44 c-111 97
-213 126 -265 74 -30 -30 -40 -95 -24 -153 6 -21 9 -40 8 -41 -1 -1 -27 4 -57
12 -76 21 -220 14 -280 -13 -57 -25 -79 -51 -87 -97 -5 -33 -2 -40 34 -74 l39
-38 -63 -43 c-62 -42 -64 -43 -125 -36 -161 16 -240 47 -304 117 -28 31 -34
46 -34 81 0 24 3 46 6 50 3 3 21 -4 40 -15 41 -24 117 -21 158 6 68 44 100
145 75 233 -18 66 -87 134 -154 154 -195 56 -399 -64 -486 -289 -30 -77 -33
-240 -5 -322 66 -195 236 -345 453 -400 l42 -11 -20 -51 c-11 -29 -29 -87 -39
-131 -10 -43 -25 -86 -32 -94 -7 -9 -58 -56 -114 -104 -117 -102 -144 -139
-144 -198 0 -111 83 -150 241 -115 l25 6 -7 -59 c-4 -32 -8 -116 -8 -188 l-1
-130 -112 0 c-100 0 -118 -3 -158 -24 -123 -65 -171 -133 -178 -250 -6 -110 9
-155 72 -217 60 -58 115 -81 218 -91 37 -3 68 -8 68 -10 0 -2 -7 -18 -16 -36
-24 -45 -23 -125 2 -167 35 -60 76 -80 164 -80 l77 0 6 -77 c7 -104 20 -143
65 -192 26 -29 53 -47 91 -59 52 -16 55 -19 71 -67 65 -191 202 -318 357 -332
136 -12 260 76 287 204 6 25 14 33 39 38 18 4 60 20 94 37 l63 29 35 -26 c38
-30 113 -55 159 -55 42 1 99 22 146 55 l39 27 47 -28 c26 -15 63 -30 82 -33
32 -5 38 -12 56 -57 42 -103 103 -161 191 -185 109 -30 252 25 338 130 51 61
106 162 116 214 6 26 14 33 61 48 64 22 123 80 140 138 6 20 14 71 17 113 l6
78 69 0 c168 0 221 90 163 276 -6 19 -3 21 20 17 35 -7 141 15 185 37 54 29
100 78 128 138 51 112 13 250 -93 335 -77 63 -136 81 -247 75 l-89 -6 6 57 c3
31 2 115 -3 186 -6 72 -9 132 -7 133 2 2 28 -2 58 -8 140 -32 237 41 206 153
-7 27 -42 67 -140 160 l-130 124 -19 80 c-10 43 -28 102 -39 131 l-20 51 42
11 c121 31 247 100 313 172 50 54 107 148 129 213 23 64 31 206 16 275 -58
268 -335 440 -541 335 -86 -44 -130 -113 -130 -205 0 -114 86 -198 192 -188
26 3 57 13 67 22 18 17 20 17 30 -3 19 -35 12 -75 -20 -114 -61 -74 -143 -108
-295 -122 -68 -6 -74 -5 -112 23 -23 16 -55 35 -72 42 l-31 13 32 33 c56 58
40 138 -35 176 -66 34 -223 35 -307 3 -15 -6 -16 3 -12 77 5 78 4 86 -19 112
-19 23 -33 29 -66 29 -53 0 -92 -16 -170 -70 -35 -24 -64 -43 -66 -43 -2 0 -6
47 -9 104 -9 170 -55 237 -132 194z m10 -229 c-8 -68 -18 -154 -21 -190 -7
-71 2 -159 16 -159 4 0 31 31 59 68 64 86 129 147 208 196 102 61 103 59 76
-124 -30 -208 -31 -200 25 -142 70 71 139 104 232 110 131 8 202 -45 110 -82
-48 -19 -53 -20 -44 -5 4 8 -4 9 -27 4 -51 -11 -131 -47 -122 -55 4 -4 51 -19
103 -34 73 -20 114 -39 176 -81 44 -30 89 -64 99 -75 18 -20 18 -20 -6 -20
-13 0 -46 18 -74 40 -27 22 -72 51 -100 65 -27 14 -39 17 -25 8 119 -84 208
-217 256 -381 30 -105 42 -262 25 -342 -13 -61 -29 -93 -37 -73 -34 83 -154
183 -251 209 -170 46 -355 -41 -431 -203 -23 -50 -27 -70 -27 -153 0 -84 3
-102 28 -152 39 -80 116 -161 185 -195 51 -25 67 -28 162 -28 96 0 110 2 163
29 54 28 131 99 169 156 l16 25 7 -40 c4 -22 20 -53 35 -70 51 -56 45 -112
-15 -154 -34 -23 -35 -25 -35 -90 0 -73 -18 -114 -67 -150 l-28 -21 61 -64
c103 -105 153 -236 108 -281 -26 -26 -92 2 -144 61 -27 31 -31 34 -25 13 16
-51 24 -66 51 -99 26 -30 29 -42 32 -125 4 -78 1 -97 -16 -132 -22 -42 -38
-53 -77 -53 -33 0 -47 21 -29 44 18 25 18 67 1 91 -13 16 -14 15 -10 -12 11
-72 -66 -82 -126 -16 l-34 38 7 -30 c9 -40 37 -77 71 -94 26 -12 27 -16 23
-68 -7 -80 -41 -108 -125 -104 -26 1 -96 60 -120 102 -12 20 -25 29 -44 29
-15 0 -32 7 -39 15 -20 24 -30 17 -30 -20 0 -39 -24 -105 -43 -117 -17 -11
-71 -10 -102 2 -14 5 -47 29 -73 52 -46 42 -84 68 -100 68 -4 0 -8 -17 -8 -38
-3 -93 -74 -162 -153 -147 -44 8 -128 49 -160 78 -16 15 -25 18 -28 10 -34
-95 -196 -138 -296 -80 -25 15 -58 44 -73 65 l-27 37 -48 -23 c-71 -35 -128
-25 -181 31 -22 23 -46 54 -54 69 -14 27 -14 27 25 38 29 8 43 18 55 44 23 48
20 51 -16 21 -27 -23 -39 -26 -72 -22 -25 4 -48 14 -58 27 -17 21 -18 21 -18
2 0 -10 9 -31 21 -46 27 -34 18 -59 -27 -81 -57 -27 -99 -14 -134 42 -16 25
-37 68 -45 94 -15 43 -20 49 -45 49 -20 0 -36 -10 -57 -35 -24 -30 -36 -36
-81 -42 -93 -11 -132 33 -111 124 11 52 18 67 69 144 62 94 62 94 -49 96 -109
1 -212 24 -256 57 -53 40 -55 40 -67 4 l-12 -33 -12 30 c-39 91 9 201 116 268
28 18 50 22 115 22 73 0 85 -3 135 -34 30 -18 70 -47 88 -64 l32 -31 0 25 c0
14 -9 42 -20 64 -18 35 -20 59 -20 211 0 103 6 219 16 289 9 64 14 118 12 120
-2 3 -31 -7 -64 -20 -139 -57 -214 -56 -214 4 0 23 12 40 62 83 35 29 95 83
134 121 l71 67 16 83 c68 346 301 619 585 686 42 10 76 22 75 27 -2 9 -51 26
-111 37 -23 5 -31 3 -26 -5 5 -8 0 -9 -17 -4 -13 3 -36 9 -51 12 -33 8 -62 38
-55 58 17 42 215 46 317 6 30 -12 82 -41 117 -65 l63 -44 -14 32 c-8 18 -25
57 -39 88 -36 80 -60 165 -52 189 7 22 25 27 25 8 0 -7 16 -28 35 -47 31 -31
73 -93 139 -205 l23 -39 53 99 c29 55 75 127 102 160 48 62 217 228 224 221 2
-2 -3 -59 -11 -128z m-1472 32 c19 -57 14 -74 -24 -84 -16 -4 -25 6 -49 60
-17 36 -30 70 -30 75 0 5 19 8 43 6 41 -3 42 -4 60 -57z m2814 51 c8 -5 2 -26
-18 -71 -16 -36 -31 -66 -33 -68 -7 -7 -66 20 -66 31 0 7 7 36 15 64 15 51 17
52 53 52 20 0 42 -4 49 -8z m-2697 -62 c14 -26 13 -27 -19 -32 -25 -4 -30 0
-35 21 -3 14 -9 37 -12 50 l-7 25 31 -23 c18 -12 37 -31 42 -41z m2536 3 c-5
-31 -12 -51 -14 -45 -2 7 -15 12 -28 12 -13 0 -24 4 -24 10 0 8 66 80 74 80 1
0 -2 -25 -8 -57z m-2808 12 c12 -9 33 -36 48 -61 21 -36 24 -47 14 -59 -11
-13 -17 -11 -49 14 -20 16 -56 35 -80 42 l-44 13 38 33 c44 38 44 38 73 18z
m3102 -35 c8 -14 4 -20 -22 -31 -18 -7 -46 -26 -64 -41 -30 -26 -33 -27 -42
-11 -11 19 14 79 49 114 18 18 21 18 45 3 13 -9 29 -25 34 -34z m-260 -152 c0
-17 -51 -6 -76 16 l-28 23 28 31 29 30 23 -47 c13 -25 24 -49 24 -53z m-2585
67 c31 -32 31 -40 3 -59 -20 -15 -78 -23 -78 -11 0 6 43 95 47 95 1 0 14 -11
28 -25z m-294 -31 c48 -24 72 -60 49 -74 -7 -4 -9 -13 -5 -20 13 -21 -16 -60
-44 -60 -28 0 -136 -32 -147 -43 -34 -34 -29 100 7 183 22 51 23 52 58 45 19
-4 56 -17 82 -31z m3190 -1 c17 -43 37 -146 31 -161 -3 -9 -13 -11 -31 -7 -14
4 -48 10 -76 14 l-50 6 -7 50 c-10 67 -5 77 45 102 57 29 75 28 88 -4z m-3155
-221 c6 -4 13 -15 17 -24 4 -13 -3 -20 -31 -29 -20 -6 -64 -26 -98 -44 l-61
-32 -12 32 c-6 17 -11 36 -11 42 0 10 100 47 150 56 14 2 27 5 30 5 3 1 10 -2
16 -6z m3142 -14 c31 -9 33 -12 26 -41 -3 -18 -8 -34 -10 -36 -1 -2 -23 6 -47
18 -24 11 -46 21 -50 21 -3 0 -17 4 -32 10 -22 9 -24 13 -15 31 10 18 17 20
53 14 23 -3 57 -11 75 -17z m-2924 -172 c8 -3 8 -7 1 -13 -6 -4 -21 -23 -34
-40 -16 -23 -30 -33 -49 -33 -44 0 -105 20 -129 42 -17 16 -26 18 -36 10 -11
-9 -18 -8 -31 7 -16 18 -15 21 38 62 78 61 88 62 164 12 36 -23 70 -44 76 -47z
m2834 36 c28 -24 52 -50 52 -58 0 -20 -17 -26 -41 -14 -17 10 -25 8 -42 -8
-26 -23 -79 -42 -117 -42 -20 0 -34 11 -57 44 l-32 45 42 20 c23 12 56 32 72
45 37 31 54 27 123 -32z m-2670 -57 c1 -1 -8 -17 -21 -36 -20 -30 -28 -34 -75
-37 -29 -2 -52 1 -52 5 0 5 11 25 25 45 25 37 27 37 73 31 26 -3 48 -7 50 -8z
m2409 -26 c31 -47 23 -59 -39 -59 -33 0 -42 5 -69 43 l-31 42 29 6 c67 15 81
11 110 -32z m-589 -629 c66 -97 -36 -240 -170 -240 -102 0 -140 86 -79 182 27
42 66 77 101 91 8 3 40 5 70 4 50 -2 56 -5 78 -37z m815 -173 c28 -26 48 -49
46 -52 -7 -6 -168 76 -207 105 -29 21 -62 66 -62 84 0 2 12 6 28 8 28 3 86
-39 195 -145z m-888 -111 c0 -36 -27 -56 -52 -40 -40 25 -20 77 26 72 21 -2
26 -8 26 -32z m277 -33 c38 -34 11 -103 -40 -103 -56 0 -81 61 -42 100 24 24
57 26 82 3z m686 -499 c12 -4 22 -10 22 -15 0 -5 16 -25 35 -45 47 -48 66 -87
67 -136 1 -81 -93 -128 -257 -128 -153 0 -187 23 -193 130 -4 69 -4 70 34 110
58 61 124 90 203 90 37 0 76 -3 89 -6z m-175 -552 c10 -23 17 -56 17 -72 0
-28 -29 -70 -49 -70 -5 0 -18 -3 -28 -7 -12 -5 -8 5 14 30 42 48 47 71 29 131
-17 57 -6 50 17 -12z m-2273 -712 c12 -16 19 -30 16 -30 -2 0 -14 14 -26 30
-12 17 -19 30 -16 30 2 0 14 -13 26 -30z"/>
<path d="M2612 3616 c-26 -44 -78 -58 -118 -31 -25 16 -25 16 -15 -4 32 -58
105 -68 145 -20 27 32 32 54 17 77 -6 10 -14 4 -29 -22z"/>
<path d="M1910 3318 c-41 -28 -55 -50 -47 -72 9 -22 32 -20 66 5 22 16 38 20
68 16 90 -14 88 -14 91 15 4 37 -29 58 -94 58 -36 0 -60 -6 -84 -22z"/>
<path d="M3062 3324 c-16 -11 -22 -24 -20 -42 3 -29 1 -29 91 -15 30 4 46 0
68 -16 71 -53 93 13 23 68 -34 26 -128 29 -162 5z"/>
<path d="M1805 3130 c-73 -18 -167 -75 -213 -130 -23 -27 -60 -117 -72 -175
-23 -113 28 -267 114 -342 100 -87 252 -117 368 -74 107 41 189 129 228 246
32 96 8 246 -53 336 -71 105 -246 171 -372 139z m69 -125 c51 -55 41 -140 -23
-198 -48 -43 -100 -61 -159 -54 -93 10 -118 92 -57 185 39 60 96 92 163 92 44
0 57 -4 76 -25z m-50 -271 c22 -21 20 -40 -5 -58 -27 -18 -47 -11 -55 20 -11
44 29 70 60 38z m269 -66 c17 -23 19 -31 9 -53 -28 -60 -122 -47 -122 17 0 68
72 91 113 36z"/>
<path d="M2292 2594 c-20 -8 -34 -22 -38 -39 -8 -30 12 -82 36 -95 10 -5 20
-26 24 -47 8 -52 47 -132 85 -175 54 -62 152 -86 246 -60 73 21 145 111 166
211 8 34 24 69 41 89 34 40 35 62 5 98 -26 30 -74 37 -101 14 -20 -16 -21 -30
-2 -30 35 0 25 -59 -14 -80 -44 -23 -115 1 -144 50 -22 38 -37 38 -59 1 -17
-28 -70 -61 -101 -61 -28 0 -64 22 -75 46 -9 20 -7 27 10 42 15 15 17 21 7 29
-23 18 -55 21 -86 7z m232 -232 c3 -5 30 -7 59 -4 34 3 57 0 61 -7 4 -6 20
-11 37 -11 38 0 37 -12 -6 -54 -76 -76 -200 -52 -252 48 -15 29 -15 30 1 17
15 -12 19 -12 34 2 17 18 57 23 66 9z"/>
<path d="M1120 2060 c-13 -25 -5 -56 16 -64 24 -9 54 12 54 37 0 46 -50 64
-70 27z"/>
<path d="M1370 1736 c0 -14 12 -38 26 -55 20 -25 34 -31 64 -31 47 0 90 32 90
67 l0 26 -20 -26 c-40 -51 -118 -41 -140 19 -12 31 -20 31 -20 0z"/>
<path d="M2319 1388 c-35 -50 -118 -56 -144 -9 l-14 26 -1 -26 c0 -35 42 -79
75 -79 44 0 82 27 95 65 14 43 10 53 -11 23z"/>
<path d="M2540 1379 c0 -30 39 -77 69 -84 39 -8 89 17 97 51 9 34 0 40 -25 15
-31 -31 -85 -28 -116 5 -15 17 -25 21 -25 13z"/>
</g>
</svg>
